<?xml version="1.0" encoding="utf-8"?>
<!-- Generator: Adobe Illustrator 14.0.0, SVG Export Plug-In . SVG Version: 6.00 Build 43363)  -->
<!DOCTYPE svg PUBLIC "-//W3C//DTD SVG 1.1//EN" "http://www.w3.org/Graphics/SVG/1.1/DTD/svg11.dtd">
<svg version="1.1" id="Layer_1" xmlns="http://www.w3.org/2000/svg" xmlns:xlink="http://www.w3.org/1999/xlink" x="0px" y="0px"
	 width="634.96px" height="634.96px" viewBox="0 0 634.96 634.96" enable-background="new 0 0 634.96 634.96" xml:space="preserve">
<path fill="#F37721" d="M634.252,317.48c0,174.949-141.824,316.771-316.771,316.771c-174.949,0-316.772-141.822-316.772-316.771
	c0-174.947,141.823-316.771,316.772-316.771C492.428,0.709,634.252,142.534,634.252,317.48z M100.797,132.509
	c-4.454,5.463-8.907,10.926-13.361,16.39c0.34,0,0.68,0,1.019,0c4.62,0,9.24,0,13.86,0c8.897,0,17.795,0,26.693,0
	c11.73,0,23.459,0,35.189,0c13.113,0,26.229,0,39.343,0c13.054,0,26.106,0,39.159,0c11.545,0,23.09,0,34.634,0
	c8.591,0,17.182,0,25.772,0c4.19,0,8.38,0,12.57,0c0.127,0,0.454,0.063,0.57,0c2.291-4.171,4.843-8.198,7.627-12.057
	c5.776-8.006,12.548-15.266,19.985-21.75c8.108-7.067,16.991-13.216,26.299-18.592c10.179-5.878,20.85-10.879,32.052-14.475
	c22.45-7.205,46.322-8.542,69.547-4.736c-0.699-0.247-1.37-0.751-2.005-1.123c-1.714-1.004-3.416-2.027-5.118-3.051
	c-16.992-10.22-34.781-18.901-53.487-25.52c-18.041-6.382-36.733-10.912-55.694-13.5c-18.713-2.555-37.681-3.219-56.528-1.991
	c-18.777,1.224-37.429,4.325-55.591,9.243c-18.247,4.942-35.994,11.717-52.887,20.203c-17.135,8.608-33.383,18.974-48.409,30.887
	c-7.653,6.068-14.99,12.535-21.974,19.364C113.31,118.405,107.027,125.417,100.797,132.509 M578.397,234.999
	c0-1.13-0.015-2.26-0.044-3.389c-0.468-18.148-4.779-36.133-12.649-52.495c-7.612-15.823-18.479-30.036-31.733-41.549
	c-13.317-11.569-29.001-20.361-45.845-25.616c-17.551-5.476-36.265-7.075-54.498-4.739c-17.741,2.272-34.932,8.323-50.197,17.643
	c-14.953,9.128-27.991,21.325-38.118,35.62c-10.29,14.526-17.517,31.165-21.072,48.61c-3.692,18.109-3.459,37.013,0.692,55.024
	c3.991,17.312,11.616,33.729,22.236,47.971c10.474,14.045,23.807,25.922,38.982,34.681c15.534,8.965,32.922,14.587,50.765,16.405
	c18.26,1.861,36.887-0.204,54.269-6.114c16.683-5.672,32.122-14.839,45.138-26.713c12.98-11.841,23.506-26.326,30.729-42.345
	C574.541,271.377,578.397,253.22,578.397,234.999 M287.536,180.438c-0.055,0-0.109,0-0.164,0c-3.976,0-7.952,0-11.928,0
	c-8.938,0-17.877,0-26.814,0c-12.021,0-24.044,0-36.066,0c-13.229,0-26.457,0-39.686,0c-12.557,0-25.114,0-37.672,0
	c-10.008,0-20.016,0-30.024,0c-5.582,0-11.163,0-16.745,0c-0.402,0-1.719-0.263-1.719,0.238c0,2.894,0,5.789,0,8.683
	c0,12.258,0,24.515,0,36.771c0,8.291,0,16.582,0,24.873c0,0.293-1.839,0.125-2.105,0.125c-2.555,0-5.108,0-7.662,0
	c-6.023,0-12.047,0-18.069,0c-0.192,0-3.034,0.031-3.034-0.028c0-1.008,0-2.016,0-3.022c0-5.369,0-10.737,0-16.106
	c0-9.364,0-18.729,0-28.093c-1.054,2.42-2.105,4.842-3.115,7.281c-7.326,17.71-12.865,36.156-16.475,54.98
	c-3.522,18.371-5.208,37.092-5.029,55.797c0.177,18.476,2.17,36.932,5.934,55.021c3.751,18.025,9.258,35.684,16.418,52.646
	c7.191,17.036,16.05,33.365,26.418,48.677c10.509,15.517,22.566,29.981,35.939,43.109c13.723,13.47,28.824,25.523,44.98,35.947
	c-0.205-0.819-0.072-1.809-0.05-2.64c0.037-1.268,0.077-2.534,0.122-3.802c0.092-2.647,0.2-5.295,0.324-7.941
	c0.246-5.287,0.556-10.57,0.926-15.85c0.732-10.422,1.707-20.826,2.922-31.202c2.661-22.725,6.478-45.314,11.43-67.653
	c4.94-22.279,11.01-44.309,18.178-65.974c7.168-21.663,15.434-42.963,24.756-63.79c9.346-20.877,19.751-41.279,31.164-61.102
	c5.727-9.944,11.707-19.744,17.933-29.384c3.12-4.832,6.302-9.623,9.543-14.374c1.624-2.378,3.263-4.746,4.916-7.104
	c0.861-1.227,1.726-2.45,2.594-3.671C286.248,182.046,286.794,181.108,287.536,180.438 M601.876,284.219
	c-4.104,8.975-7.958,18.137-12.66,26.82c-8.523,15.737-19.718,29.995-33.021,41.972c-12.885,11.603-27.692,21.035-43.635,27.847
	c-15.861,6.776-32.82,10.952-50.018,12.295c-17.493,1.366-35.193-0.212-52.163-4.678c-8.765-2.307-17.325-5.376-25.563-9.149
	c-7.83-3.587-15.34-7.881-22.92-11.957c0,1.536,0,3.072,0,4.609c0,6.394,0,12.788,0,19.183c0,10.08,0,20.161,0,30.241
	c0,12.367,0,24.735,0,37.104c0,13.256,0,26.512,0,39.768c0,12.745,0,25.491,0,38.236c0,10.836,0,21.672,0,32.508
	c0,7.527,0,15.055,0,22.582c0,2.82,0,5.64,0,8.46c2.247-0.331,4.49-0.689,6.729-1.073c18.28-3.14,36.252-8.061,53.569-14.704
	c16.874-6.473,33.119-14.575,48.441-24.158c15.106-9.448,29.312-20.331,42.377-32.447c12.991-12.049,24.851-25.315,35.376-39.569
	c10.542-14.273,19.745-29.535,27.442-45.523c7.766-16.133,13.997-33.002,18.57-50.312c4.661-17.638,7.598-35.728,8.765-53.934
	c0.597-9.306,0.732-18.641,0.412-27.959C603.279,301.646,602.514,292.932,601.876,284.219 M196.04,576.405
	c0,0,27.873,14.168,63.843,21.529c29.324,6.621,67.014,5.439,67.014,5.439V358.515l-55.781-0.036l0.56-30.871
	c0,0,49.566,0.648,48.83,0c-0.345-0.304-14.875-21.902-22.153-44.71c-8.074-25.303-7.41-56.801-7.41-56.801
	c0,0-56.982,95.412-75.398,178.213C192.908,506.09,196.041,576.405,196.04,576.405z"/>
</svg>
